{"title":"District 9 2009 BRRip XviD MP3 Idiocracy","uid":8954119,"size":1052564332,"categoryP":"video","categoryS":"movies","magnet":"?xt=urn:btih:59b030a39c029e1c7076d9c3462b9bb5cb7bbad8&amp;dn=District+9+2009+BRRip+XviD+MP3+Idiocracy&amp;tr=udp%3A%2F%2Ftracker.openbittorrent.com%3A80&amp;tr=udp%3A%2F%2Fopen.demonii.com%3A1337&amp;tr=udp%3A%2F%2Ftracker.coppersurfer.tk%3A6969&amp;tr=udp%3A%2F%2Fexodus.desync.com%3A6969","seeders":1,"leechers":0,"uploader":"Satafakap","files":3,"time":1379965060,"description":"General\n\nComplete name         : District.9.2009.BRRip.XviD.MP3-Idiocracy.avi\nFormat                : AVI\nFormat/Info           : Audio Video Interleave\nFile size             : 998 MiB\nDuration              : 1h 52mn\nOverall bit rate      : 1 243 Kbps\nWriting application   : VirtualDubMod 1.5.10.3 | www.virtualdub-fr.org || (build \n                        2550/release)\nWriting library       : VirtualDubMod build 2550/release\nSource\t\t      : District 9 2009 Bluray Xvid 720p-aTLas - Thanks.\nSample\t\t      : Yes\n\nVideo\n\nID                                       : 0\nFormat                                   : MPEG-4 Visual\nFormat profile                           : Advanced Simple@L5\nFormat settings, BVOP                    : 4\nFormat settings, QPel                    : No\nFormat settings, GMC                     : No warppoints\nFormat settings, Matrix                  : Default (H.263)\nCodec ID                                 : XVID\nCodec ID/Hint                            : XviD\nDuration                                 : 1h 52mn\nBit rate                                 : 1 106 Kbps\nWidth                                    : 640 pixels\nHeight                                   : 344 pixels\nDisplay aspect ratio                     : 1.85:1\nFrame rate                               : 23.976 fps\nColor space                              : YUV\nChroma subsampling                       : 4:2:0\nBit depth                                : 8 bits\nScan type                                : Progressive\nCompression mode                         : Lossy\nBits/(Pixel*Frame)                       : 0.209\nStream size                              : 888 MiB (89%)\nWriting library                          : XviD 1.2.1 (UTC 2008-12-04)\n\nAudio\n\nID                                       : 1\nFormat                                   : MPEG Audio\nFormat version                           : Version 1\nFormat profile                           : Layer 3\nCodec ID                                 : 55\nCodec ID/Hint                            : MP3\nDuration                                 : 1h 52mn\nBit rate mode                            : Constant\nBit rate                                 : 128 Kbps\nChannel(s)                               : 2 channels\nSampling rate                            : 48.0 KHz\nCompression mode                         : Lossy\nStream size                              : 103 MiB (10%)\nAlignment                                : Aligned on interleaves\nInterleave, duration                     : 42 ms (1.00 video frame)\nInterleave, preload duration             : 504 ms\nWriting library                          : LAME3.99r\nEncoding settings                        : -m s -V 4 -q 2 -lowpass 17 -b 128\n","torrent":{"xt":"urn:btih:59b030a39c029e1c7076d9c3462b9bb5cb7bbad8","amp;dn":"District+9+2009+BRRip+XviD+MP3+Idiocracy","amp;tr":["udp%3A%2F%2Ftracker.openbittorrent.com%3A80","udp%3A%2F%2Fopen.demonii.com%3A1337","udp%3A%2F%2Ftracker.coppersurfer.tk%3A6969","udp%3A%2F%2Fexodus.desync.com%3A6969"],"infoHash":"59b030a39c029e1c7076d9c3462b9bb5cb7bbad8","infoHashBuffer":{"type":"Buffer","data":[89,176,48,163,156,2,158,28,112,118,217,195,70,43,155,181,203,123,186,216]},"announce":[],"urlList":[]}}